<?xml version="1.0" encoding="UTF-8" standalone="no"?>
<svg
   width="34"
   height="34"
   viewBox="0 0 34 34"
   style="color: #f5993d"
   version="1.1"
   id="svg6"
   sodipodi:docname="home-logo.svg"
   inkscape:version="1.1 (c68e22c387, 2021-05-23)"
   xmlns:inkscape="http://www.inkscape.org/namespaces/inkscape"
   xmlns:sodipodi="http://sodipodi.sourceforge.net/DTD/sodipodi-0.dtd"
   xmlns="http://www.w3.org/2000/svg"
   xmlns:svg="http://www.w3.org/2000/svg">
  <defs
     id="defs10" />
  <sodipodi:namedview
     id="namedview8"
     pagecolor="#ffffff"
     bordercolor="#666666"
     borderopacity="1.0"
     inkscape:pageshadow="2"
     inkscape:pageopacity="0.0"
     inkscape:pagecheckerboard="0"
     showgrid="false"
     inkscape:zoom="21.764706"
     inkscape:cx="13.393243"
     inkscape:cy="14.013513"
     inkscape:window-width="1920"
     inkscape:window-height="986"
     inkscape:window-x="-11"
     inkscape:window-y="-11"
     inkscape:window-maximized="1"
     inkscape:current-layer="svg6" />
  <g
     id="g4"
     style="fill:#d40000">
    <path
       d="M34,2.5v29A2.5,2.5,0,0,1,31.5,34H2.5A2.5,2.5,0,0,1,0,31.5V2.5A2.5,2.5,0,0,1,2.5,0h29A2.5,2.5,0,0,1,34,2.5ZM10,13H5V29h5Zm.45-5.5A2.88,2.88,0,0,0,7.59,4.6H7.5a2.9,2.9,0,0,0,0,5.8h0a2.88,2.88,0,0,0,2.95-2.81ZM29,19.28c0-4.81-3.06-6.68-6.1-6.68a5.7,5.7,0,0,0-5.06,2.58H17.7V13H13V29h5V20.49a3.32,3.32,0,0,1,3-3.58h.19c1.59,0,2.77,1,2.77,3.52V29h5Z"
       fill="currentColor"
       id="path2"
       style="fill:#d40000" />
  </g>
  <path
     style="fill:#ffffff;stroke:none;stroke-width:0.236239px;stroke-linecap:butt;stroke-linejoin:miter;stroke-opacity:1"
     d="M 4.9558194,6.0314789 C 4.8849121,4.9552588 4.4894237,3.9344108 4.6190538,2.8785701 5.0867756,4.3461841 6.516023,4.1278505 7.0882142,4.5993431 6.0744374,4.8149816 5.574272,5.3772062 4.9558194,6.0314789 Z"
     id="path90"
     sodipodi:nodetypes="cccc" />
  <path
     style="color:#f5993d;fill:#ffffff;stroke:none;stroke-width:0.236239px;stroke-linecap:butt;stroke-linejoin:miter;stroke-opacity:1"
     d="m 10.144141,6.0436493 c 0.07091,-1.0762201 0.466396,-2.0970681 0.336766,-3.1529088 -0.467722,1.467614 -1.8969697,1.2492804 -2.4691607,1.720773 1.013777,0.2156385 1.5139426,0.7778631 2.1323947,1.4321358 z"
     id="path90-5"
     sodipodi:nodetypes="cccc" />
  <path
     style="color:#f5993d;fill:#ffffff;stroke:none;stroke-width:0.68413px;stroke-linecap:butt;stroke-linejoin:miter;stroke-opacity:1"
     d="m 28.458662,16.260589 c 0.138848,-4.609388 2.5673,-9.5789126 0.797256,-14.5145241 -0.272599,6.9289421 -3.125979,9.3002261 -4.246381,11.3195991 1.857899,1.147242 1.813478,1.945645 3.449125,3.194925 z"
     id="path90-5-3"
     sodipodi:nodetypes="cccc" />
  <path
     style="color:#f5993d;fill:#ffffff;stroke:none;stroke-width:0.68413px;stroke-linecap:butt;stroke-linejoin:miter;stroke-opacity:1"
     d="M 13.081364,15.173205 C 12.942516,10.563817 12.168118,6.1915902 12.421946,1.6694922 13.337788,7.9551912 16.579598,10.980627 17.7,13 c -1.903845,0.549945 -3.212719,0.280682 -4.618636,2.173205 z"
     id="path90-5-3-6"
     sodipodi:nodetypes="cccc" />
</svg>
